<?xml version="1.0" encoding="UTF-8" standalone="no"?><!DOCTYPE svg PUBLIC "-//W3C//DTD SVG 1.1//EN" "http://www.w3.org/Graphics/SVG/1.1/DTD/svg11.dtd"><svg width="100%" height="100%" viewBox="0 0 2223 1062" version="1.1" xmlns="http://www.w3.org/2000/svg" xmlns:xlink="http://www.w3.org/1999/xlink" xml:space="preserve" xmlns:serif="http://www.serif.com/" style="fill-rule:evenodd;clip-rule:evenodd;stroke-linejoin:round;stroke-miterlimit:2;"><rect id="Artboard1" x="-484.577" y="-1917.76" width="3200" height="4266.67" style="fill:none;"/><g id="Artboard11" serif:id="Artboard1"><path d="M433.333,264.905c31.672,-1.257 65.542,0.279 96.649,-4.248c19.663,-2.861 38.176,-8.099 53.081,-20.375c14.809,-12.199 25.43,-31.239 31.568,-59.645c7.755,-35.893 5.41,-62.191 -7.584,-80.639c-12.743,-18.092 -34.649,-27.411 -60.854,-32.674c-66.292,-13.314 -157.854,1.285 -239.982,20.411c-43.637,10.163 -73.363,27.909 -92.214,50.989c-45.224,55.37 -28.62,136.444 -7.887,193.344c6.706,18.402 26.484,36.141 51.06,55.271c44.759,34.839 105.983,70.418 159.603,106.319c38.486,25.768 73.187,51.866 96.793,77.698c19.192,21.002 31.465,42.439 35.684,63.316c23.388,115.73 -67.878,210.562 -209.079,247.01c-139.294,35.956 -282.245,24.788 -331.313,-125.515c-27.112,-83.051 12.381,-137.85 59.396,-171.627c25.904,-18.609 54.091,-30.233 72.169,-36.477l-38.171,-20.045l129.297,10.136l-42.521,96.591l-5.008,-36.014c-2.934,1.936 -6.246,3.406 -9.858,4.28c0,-0 -37.045,9.015 -69.442,32.289c-27.912,20.052 -52.543,52.166 -36.447,101.471c37.368,114.466 150.195,111.777 256.277,84.394c104.195,-26.895 180.697,-88.713 163.439,-174.113c-3.017,-14.927 -15.196,-29.097 -30.979,-44.122c-30.651,-29.18 -75.533,-58.213 -120.887,-87.156c-48.457,-30.924 -97.482,-61.669 -132.818,-91.671c-27.874,-23.666 -47.577,-47.749 -55.918,-70.637c-27.315,-74.962 -41.375,-181.332 18.204,-254.278c26.06,-31.906 66.119,-58.275 126.444,-72.324c91.14,-21.225 192.899,-35.592 266.465,-20.816c43.734,8.783 78.377,27.765 99.644,57.96c21.019,29.841 30.122,71.769 17.577,129.828c-9.865,45.66 -29.117,75.08 -52.922,94.687c-23.709,19.529 -52.538,29.432 -83.818,33.983c-24.527,3.569 -50.673,3.724 -76.269,4.14l36.402,29.616l-124.726,-35.55l26.257,-37.242c1.63,-3.58 3.918,-6.81 6.717,-9.526l27.839,-39.485l-1.868,30.446Zm211.529,571.099c-16.316,-0 -32.032,-31.792 -47.149,-95.377c-15.116,-63.585 -22.674,-134.968 -22.674,-214.149c-0,-8.158 3.479,-14.516 10.437,-19.075c6.958,-4.559 13.317,-6.838 19.076,-6.838c5.758,-0 10.437,1.799 14.036,5.398c3.599,3.599 5.399,8.278 5.399,14.037c-0,74.862 12.717,146.845 38.151,215.948c3.839,-5.759 9.837,-17.396 17.995,-34.912c8.158,-17.515 15.837,-30.352 23.035,-38.51c7.198,-8.158 15.836,-12.237 25.914,-12.237c10.077,-0 20.635,7.438 31.672,22.314c11.037,14.877 20.515,30.833 28.433,47.869c7.918,17.036 12.357,26.033 13.317,26.993c12.957,-40.31 19.435,-77.741 19.435,-112.293l-4.319,-109.413c-0.479,-7.199 2.88,-13.317 10.078,-18.356c7.198,-5.039 14.157,-7.558 20.875,-7.558c13.917,-0 20.875,27.113 20.875,81.34l-0,39.591c-0,64.304 -9.838,121.65 -29.513,172.038c-10.557,28.793 -23.754,43.19 -39.59,43.19c-9.118,-0 -17.516,-5.879 -25.194,-17.636c-7.679,-11.757 -16.316,-28.433 -25.914,-50.028c-9.598,-21.595 -17.036,-36.471 -22.315,-44.629l-21.595,42.47c-8.158,16.796 -14.396,28.913 -18.715,36.351c-4.319,7.438 -10.318,14.876 -17.996,22.315c-7.678,7.438 -15.596,11.157 -23.754,11.157Zm474.366,-335.439c21.115,-0 31.672,17.995 31.672,53.987l0,12.237l-1.439,50.388c-0.48,15.836 -0.72,31.432 -0.72,46.788l10.797,162.681c0,11.997 -12.237,17.996 -36.711,17.996l-10.437,-0c-5.519,-0 -9.358,-2.16 -11.518,-6.479c-2.159,-4.318 -2.399,-9.597 -0.719,-15.836c1.679,-6.238 1.079,-13.197 -1.8,-20.875c-22.075,23.515 -51.348,35.272 -87.819,35.272c-67.664,-0 -101.496,-52.308 -101.496,-156.922c0,-58.067 10.918,-101.976 32.753,-131.729c21.834,-29.753 53.147,-44.629 93.937,-44.629c19.195,-0 38.391,3.359 57.586,10.077c6.239,-8.637 14.877,-12.956 25.914,-12.956Zm-74.862,65.504c-27.353,-0 -47.749,7.918 -61.185,23.754c-13.437,15.836 -20.156,44.869 -20.156,87.099c0,71.023 19.196,106.535 57.587,106.535c10.077,-0 21.235,-4.559 33.472,-13.677c12.237,-9.118 20.755,-19.435 25.553,-30.953c9.118,-25.913 13.677,-54.227 13.677,-84.939c0,-30.713 -3.719,-53.028 -11.157,-66.944c-7.438,-13.917 -20.035,-20.875 -37.791,-20.875Zm269.935,269.935c-16.316,-0 -31.432,-5.519 -45.349,-16.556l-9.358,-7.918l0,215.948c-2.879,9.598 -7.918,17.636 -15.116,24.114c-7.198,6.479 -14.877,9.718 -23.035,9.718c-12.477,-0 -18.715,-8.398 -18.715,-25.194l-0,-501.72c2.879,-12.477 6.358,-21.354 10.437,-26.633c4.079,-5.279 10.558,-7.918 19.436,-7.918c8.878,-0 14.636,2.039 17.276,6.118c2.639,4.079 5.878,15.237 9.717,33.472c1.92,-9.597 9.598,-18.475 23.035,-26.633c13.436,-8.158 31.432,-12.237 53.987,-12.237c48.948,-0 83.74,17.755 104.375,53.267c20.635,35.511 30.952,77.381 30.952,125.61c0,48.228 -14.036,86.379 -42.11,114.452c-28.073,28.073 -66.584,42.11 -115.532,42.11Zm-54.707,-215.948l0,133.888c2.88,1.439 6.239,3.839 10.078,7.198c13.916,12.477 29.033,18.715 45.349,18.715c66.224,0 99.336,-34.071 99.336,-102.215c0,-58.066 -14.876,-94.777 -44.629,-110.134c-12.477,-6.718 -27.834,-10.077 -46.069,-10.077c-17.756,2.399 -32.872,10.197 -45.349,23.394c-12.477,13.197 -18.716,26.274 -18.716,39.231Zm362.793,215.948c-16.316,-0 -31.432,-5.519 -45.349,-16.556l-9.358,-7.918l0,215.948c-2.879,9.598 -7.918,17.636 -15.116,24.114c-7.198,6.479 -14.877,9.718 -23.035,9.718c-12.477,-0 -18.715,-8.398 -18.715,-25.194l-0,-501.72c2.879,-12.477 6.358,-21.354 10.437,-26.633c4.079,-5.279 10.558,-7.918 19.436,-7.918c8.878,-0 14.636,2.039 17.276,6.118c2.639,4.079 5.878,15.237 9.717,33.472c1.92,-9.597 9.598,-18.475 23.035,-26.633c13.437,-8.158 31.432,-12.237 53.987,-12.237c48.948,-0 83.74,17.755 104.375,53.267c20.635,35.511 30.952,77.381 30.952,125.61c0,48.228 -14.036,86.379 -42.11,114.452c-28.073,28.073 -66.584,42.11 -115.532,42.11Zm-54.707,-215.948l0,133.888c2.88,1.439 6.239,3.839 10.078,7.198c13.917,12.477 29.033,18.715 45.349,18.715c66.224,0 99.336,-34.071 99.336,-102.215c0,-58.066 -14.876,-94.777 -44.629,-110.134c-12.477,-6.718 -27.834,-10.077 -46.069,-10.077c-17.756,2.399 -32.872,10.197 -45.349,23.394c-12.477,13.197 -18.716,26.274 -18.716,39.231Zm296.569,-238.263c8.638,0 16.796,4.079 24.474,12.237c7.678,8.158 11.517,16.676 11.517,25.554c0,8.878 -4.199,17.876 -12.597,26.994c-8.398,9.117 -17.155,13.676 -26.273,13.676c-9.118,0 -17.396,-3.839 -24.834,-11.517c-7.439,-7.678 -11.158,-17.516 -11.158,-29.513c0,-23.034 12.477,-35.511 37.431,-37.431l1.44,0Zm30.233,377.189l0.72,50.388c-0,9.118 -3.6,16.676 -10.798,22.675c-7.198,5.999 -14.876,8.998 -23.034,8.998c-11.997,-0 -18.236,-5.999 -18.716,-17.996c-6.238,-153.083 -9.358,-237.783 -9.358,-254.099c0,-16.316 0.72,-36.231 2.16,-59.746c0.96,-8.637 6.478,-12.956 16.556,-12.956c25.434,-0 39.83,10.317 43.19,30.952c1.439,10.558 2.159,18.956 2.159,25.194l-2.879,45.349l-0,161.241Zm187.155,-255.538c25.434,-0 49.668,7.438 72.702,22.315c23.035,14.876 34.552,33.232 34.552,55.066c0,21.835 -9.358,42.95 -28.073,63.345c-18.716,20.395 -43.67,32.752 -74.862,37.071c-13.437,1.92 -33.592,2.879 -60.466,2.879c5.279,40.791 15.597,67.664 30.953,80.621c4.799,5.279 11.277,7.918 19.435,7.918c29.753,0 54.707,-9.478 74.862,-28.433c20.155,-18.955 34.552,-28.433 43.19,-28.433c3.839,-0 9.598,3.599 17.276,10.797c7.678,7.199 11.517,13.917 11.517,20.155c-0,12.477 -15.116,30.473 -45.349,53.987c-13.437,11.038 -29.633,20.276 -48.588,27.714c-18.956,7.438 -36.592,11.157 -52.908,11.157c-41.75,0 -72.462,-26.873 -92.138,-80.621c-12.477,-33.112 -18.715,-69.583 -18.715,-109.413c-0,-39.831 9.358,-74.142 28.073,-102.936c18.716,-28.793 48.229,-43.189 88.539,-43.189Zm3.599,49.668c-18.236,-0 -33.832,10.317 -46.789,30.952c-4.799,7.199 -9.358,23.515 -13.677,48.949c67.184,-0 100.776,-16.556 100.776,-49.668c0,-20.155 -13.436,-30.233 -40.31,-30.233Z"/></g></svg>